<svg width="136" height="38" viewBox="0 0 136 38" fill="none" xmlns="http://www.w3.org/2000/svg">
<path d="M27.7899 9.28342C27.1071 8.55951 26.2963 7.98525 25.404 7.59346C24.5117 7.20166 23.5553 7 22.5895 7C21.6236 7 20.6672 7.20166 19.7749 7.59346C18.8826 7.98525 18.0719 8.55951 17.3891 9.28342L15.972 10.7851L14.5549 9.28342C13.1757 7.82186 11.305 7.00076 9.35449 7.00076C7.40396 7.00076 5.53331 7.82186 4.15408 9.28342C2.77485 10.745 2 12.7273 2 14.7943C2 16.8612 2.77485 18.8435 4.15408 20.3051L5.57116 21.8068L15.972 32.8284L26.3728 21.8068L27.7899 20.3051C28.473 19.5815 29.0149 18.7224 29.3846 17.7768C29.7544 16.8313 29.9447 15.8178 29.9447 14.7943C29.9447 13.7707 29.7544 12.7572 29.3846 11.8117C29.0149 10.8661 28.473 10.007 27.7899 9.28342V9.28342Z" stroke="#60435F" stroke-width="3" stroke-linecap="round" stroke-linejoin="round"/>
<path d="M31.3485 10.1667C33.8597 10.1667 35.8955 8.11464 35.8955 5.58333C35.8955 3.05203 33.8597 1 31.3485 1C28.8373 1 26.8016 3.05203 26.8016 5.58333C26.8016 8.11464 28.8373 10.1667 31.3485 10.1667Z" stroke="#60435F" stroke-width="2" stroke-linecap="round" stroke-linejoin="round"/>
<path d="M31.2659 3.66675V7.33341" stroke="#60435F" stroke-linecap="round" stroke-linejoin="round"/>
<path d="M29.4471 5.5H33.0846" stroke="#60435F" stroke-linecap="round" stroke-linejoin="round"/>
<path d="M67.4046 31V17.224L65.6126 17.016C65.3886 16.9627 65.202 16.8827 65.0526 16.776C64.914 16.6587 64.8446 16.4933 64.8446 16.28V15.112H67.4046V13.544C67.4046 12.616 67.5326 11.7947 67.7886 11.08C68.0553 10.3547 68.4286 9.74667 68.9086 9.256C69.3993 8.75467 69.986 8.376 70.6686 8.12C71.3513 7.864 72.1193 7.736 72.9726 7.736C73.698 7.736 74.3646 7.84267 74.9726 8.056L74.9086 9.48C74.8873 9.736 74.7433 9.87467 74.4766 9.896C74.2206 9.91733 73.874 9.928 73.4366 9.928C72.946 9.928 72.498 9.992 72.0926 10.12C71.698 10.248 71.3566 10.456 71.0686 10.744C70.7806 11.032 70.5566 11.4107 70.3966 11.88C70.2473 12.3493 70.1726 12.9307 70.1726 13.624V15.112H74.8446V17.176H70.2686V31H67.4046ZM84.2896 23.704C82.9776 23.7467 81.8576 23.8533 80.9296 24.024C80.0123 24.184 79.2603 24.3973 78.6736 24.664C78.0976 24.9307 77.6763 25.2453 77.4096 25.608C77.1536 25.9707 77.0256 26.376 77.0256 26.824C77.0256 27.2507 77.095 27.6187 77.2336 27.928C77.3723 28.2373 77.559 28.4933 77.7936 28.696C78.039 28.888 78.3216 29.032 78.6416 29.128C78.9723 29.2133 79.3243 29.256 79.6976 29.256C80.199 29.256 80.6576 29.208 81.0736 29.112C81.4896 29.0053 81.879 28.856 82.2416 28.664C82.615 28.472 82.967 28.2427 83.2976 27.976C83.639 27.7093 83.9696 27.4053 84.2896 27.064V23.704ZM75.0896 17.08C75.9856 16.216 76.951 15.5707 77.9856 15.144C79.0203 14.7173 80.167 14.504 81.4256 14.504C82.3323 14.504 83.1376 14.6533 83.8416 14.952C84.5456 15.2507 85.1376 15.6667 85.6176 16.2C86.0976 16.7333 86.4603 17.3787 86.7056 18.136C86.951 18.8933 87.0736 19.7253 87.0736 20.632V31H85.8096C85.5323 31 85.319 30.9573 85.1696 30.872C85.0203 30.776 84.903 30.5947 84.8176 30.328L84.4976 28.792C84.071 29.1867 83.655 29.5387 83.2496 29.848C82.8443 30.1467 82.4176 30.4027 81.9696 30.616C81.5216 30.8187 81.0416 30.9733 80.5296 31.08C80.0283 31.1973 79.4683 31.256 78.8496 31.256C78.2203 31.256 77.6283 31.1707 77.0736 31C76.519 30.8187 76.0336 30.552 75.6176 30.2C75.2123 29.848 74.887 29.4053 74.6416 28.872C74.407 28.328 74.2896 27.688 74.2896 26.952C74.2896 26.312 74.4656 25.6987 74.8176 25.112C75.1696 24.5147 75.7403 23.9867 76.5296 23.528C77.319 23.0693 78.3483 22.696 79.6176 22.408C80.887 22.1093 82.4443 21.9387 84.2896 21.896V20.632C84.2896 19.3733 84.0176 18.424 83.4736 17.784C82.9296 17.1333 82.135 16.808 81.0896 16.808C80.3856 16.808 79.7936 16.8987 79.3136 17.08C78.8443 17.2507 78.4336 17.448 78.0816 17.672C77.7403 17.8853 77.4416 18.0827 77.1856 18.264C76.9403 18.4347 76.695 18.52 76.4496 18.52C76.2576 18.52 76.0923 18.472 75.9536 18.376C75.815 18.2693 75.6976 18.1413 75.6016 17.992L75.0896 17.08ZM92.1319 17.144C92.4839 16.7493 92.8572 16.392 93.2519 16.072C93.6465 15.752 94.0625 15.48 94.4999 15.256C94.9479 15.0213 95.4172 14.8453 95.9079 14.728C96.4092 14.6 96.9479 14.536 97.5239 14.536C98.4092 14.536 99.1879 14.6853 99.8599 14.984C100.543 15.272 101.108 15.688 101.556 16.232C102.015 16.7653 102.361 17.4107 102.596 18.168C102.831 18.9253 102.948 19.7627 102.948 20.68V31H100.084V20.68C100.084 19.4533 99.8012 18.504 99.2359 17.832C98.6812 17.1493 97.8332 16.808 96.6919 16.808C95.8492 16.808 95.0599 17.0107 94.3239 17.416C93.5985 17.8213 92.9265 18.3707 92.3079 19.064V31H89.4439V14.792H91.1559C91.5612 14.792 91.8119 14.9893 91.9079 15.384L92.1319 17.144ZM114.76 17.464C114.632 17.6987 114.434 17.816 114.168 17.816C114.008 17.816 113.826 17.7573 113.624 17.64C113.421 17.5227 113.17 17.3947 112.872 17.256C112.584 17.1067 112.237 16.9733 111.832 16.856C111.426 16.728 110.946 16.664 110.392 16.664C109.912 16.664 109.48 16.728 109.096 16.856C108.712 16.9733 108.381 17.1387 108.104 17.352C107.837 17.5653 107.629 17.816 107.48 18.104C107.341 18.3813 107.272 18.6853 107.272 19.016C107.272 19.432 107.389 19.7787 107.624 20.056C107.869 20.3333 108.189 20.5733 108.584 20.776C108.978 20.9787 109.426 21.16 109.928 21.32C110.429 21.4693 110.941 21.6347 111.464 21.816C111.997 21.9867 112.514 22.1787 113.016 22.392C113.517 22.6053 113.965 22.872 114.36 23.192C114.754 23.512 115.069 23.9067 115.304 24.376C115.549 24.8347 115.672 25.3893 115.672 26.04C115.672 26.7867 115.538 27.48 115.272 28.12C115.005 28.7493 114.61 29.2987 114.088 29.768C113.565 30.2267 112.925 30.5893 112.168 30.856C111.41 31.1227 110.536 31.256 109.544 31.256C108.413 31.256 107.389 31.0747 106.472 30.712C105.554 30.3387 104.776 29.864 104.136 29.288L104.808 28.2C104.893 28.0613 104.994 27.9547 105.112 27.88C105.229 27.8053 105.378 27.768 105.56 27.768C105.752 27.768 105.954 27.8427 106.168 27.992C106.381 28.1413 106.637 28.3067 106.936 28.488C107.245 28.6693 107.618 28.8347 108.056 28.984C108.493 29.1333 109.037 29.208 109.688 29.208C110.242 29.208 110.728 29.1387 111.144 29C111.56 28.8507 111.906 28.6533 112.184 28.408C112.461 28.1627 112.664 27.88 112.792 27.56C112.93 27.24 113 26.8987 113 26.536C113 26.088 112.877 25.72 112.632 25.432C112.397 25.1333 112.082 24.8827 111.688 24.68C111.293 24.4667 110.84 24.2853 110.328 24.136C109.826 23.976 109.309 23.8107 108.776 23.64C108.253 23.4693 107.736 23.2773 107.224 23.064C106.722 22.84 106.274 22.5627 105.88 22.232C105.485 21.9013 105.165 21.496 104.92 21.016C104.685 20.5253 104.568 19.9333 104.568 19.24C104.568 18.6213 104.696 18.0293 104.952 17.464C105.208 16.888 105.581 16.3867 106.072 15.96C106.562 15.5227 107.165 15.176 107.88 14.92C108.594 14.664 109.41 14.536 110.328 14.536C111.394 14.536 112.349 14.7067 113.192 15.048C114.045 15.3787 114.781 15.8373 115.4 16.424L114.76 17.464Z" fill="#60435F"/>
<path d="M41.3496 16.968C41.8616 16.072 42.4483 15.368 43.1096 14.856C43.7816 14.344 44.5496 14.088 45.4136 14.088C46.1603 14.088 46.7683 14.264 47.2376 14.616L46.9176 18.264C46.8643 18.4987 46.7736 18.6587 46.6456 18.744C46.5283 18.8293 46.363 18.872 46.1496 18.872C46.0643 18.872 45.9523 18.8667 45.8136 18.856C45.675 18.8453 45.531 18.8347 45.3816 18.824C45.2323 18.8027 45.0776 18.7867 44.9176 18.776C44.7683 18.7547 44.6296 18.744 44.5016 18.744C43.7763 18.744 43.195 18.936 42.7576 19.32C42.331 19.704 41.9683 20.2373 41.6696 20.92V31H36.7096V14.408H39.6536C39.899 14.408 40.1016 14.4293 40.2616 14.472C40.4323 14.5147 40.571 14.584 40.6776 14.68C40.795 14.7653 40.8803 14.8827 40.9336 15.032C40.9976 15.1813 41.051 15.3627 41.0936 15.576L41.3496 16.968ZM63.2804 14.408V31H60.2084C59.5897 31 59.1844 30.7227 58.9924 30.168L58.7044 29.208C58.3844 29.5173 58.0537 29.8 57.7124 30.056C57.371 30.3013 57.003 30.5147 56.6084 30.696C56.2244 30.8667 55.803 31 55.3444 31.096C54.8964 31.2027 54.4057 31.256 53.8724 31.256C52.9657 31.256 52.1604 31.1013 51.4564 30.792C50.763 30.472 50.1764 30.0293 49.6964 29.464C49.2164 28.8987 48.8537 28.232 48.6084 27.464C48.363 26.696 48.2404 25.8533 48.2404 24.936V14.408H53.2004V24.936C53.2004 25.7573 53.387 26.392 53.7604 26.84C54.1337 27.288 54.683 27.512 55.4084 27.512C55.9524 27.512 56.459 27.4 56.9284 27.176C57.4084 26.9413 57.8724 26.6267 58.3204 26.232V14.408H63.2804Z" fill="#60435F"/>
</svg>
